<svg width="22" height="22" viewBox="0 0 22 22" fill="none" xmlns="http://www.w3.org/2000/svg">
<path d="M2.0573 5.99002L4.88355 8.22127M2.03104 15.1775L4.86604 12.9463M14.736 16L17.5623 18.2313M21.0623 10.61C21.0604 11.1972 21.0047 11.783 20.896 12.36C20.5118 14.5315 19.4231 16.5161 17.7981 18.0069C16.1731 19.4977 14.1023 20.4118 11.9057 20.6079C9.70922 20.804 7.50926 20.2712 5.64587 19.0918C3.78248 17.9124 2.35941 16.1521 1.5966 14.083C0.833785 12.0139 0.773703 9.75109 1.42564 7.6444C2.07757 5.53771 3.40523 3.70439 5.2034 2.42778C7.00158 1.15118 9.17017 0.502365 11.374 0.581621C13.5778 0.660878 15.6942 1.46379 17.396 2.86627L14.9285 5.36002C13.7986 4.50297 12.418 4.04173 10.9998 4.04752C9.77688 4.04614 8.57792 4.3865 7.53813 5.03021C6.49834 5.67391 5.6591 6.59535 5.11507 7.69058C4.57104 8.78582 4.34386 10.0113 4.45916 11.2287C4.57446 12.4462 5.02765 13.6072 5.76762 14.5809C6.50758 15.5545 7.50488 16.302 8.64702 16.7391C9.78916 17.1761 11.0307 17.2854 12.2316 17.0545C13.4325 16.8235 14.545 16.2616 15.4436 15.4322C16.3422 14.6027 16.9912 13.5386 17.3173 12.36H11.4373V8.86002H20.896C21.0003 9.43768 21.0559 10.0231 21.0623 10.61Z" stroke="white" stroke-linecap="round" stroke-linejoin="round"/>
</svg>
