<svg width="153" height="23" viewBox="0 0 153 23" fill="none" xmlns="http://www.w3.org/2000/svg">
<path d="M44.0586 19.2556C43.0175 20.2851 41.7958 21.0939 40.3936 21.6822C39.0125 22.2705 37.5465 22.5646 35.9955 22.5646C34.4233 22.5646 32.9467 22.2705 31.5657 21.6822C30.1846 21.0939 28.9842 20.2851 27.9644 19.2556C26.9233 18.2471 26.1053 17.06 25.5104 15.6944C24.9155 14.3288 24.6181 12.8686 24.6181 11.3138C24.6181 9.78011 24.9155 8.33043 25.5104 6.96478C26.1053 5.57813 26.9233 4.37006 27.9644 3.34057C28.9842 2.31109 30.1846 1.50221 31.5657 0.91393C32.9467 0.304644 34.4233 0 35.9955 0C37.5465 0 39.0125 0.304644 40.3936 0.91393C41.7958 1.50221 43.0175 2.31109 44.0586 3.34057C45.0996 4.37006 45.9176 5.57813 46.5125 6.96478C47.1287 8.33043 47.4367 9.78011 47.4367 11.3138C47.4367 12.8686 47.1287 14.3288 46.5125 15.6944C45.9176 17.06 45.0996 18.2471 44.0586 19.2556ZM29.8447 17.4907C30.6308 18.2891 31.555 18.9194 32.6174 19.3816C33.6797 19.8439 34.8164 20.075 36.0274 20.075C37.2385 20.075 38.3751 19.8439 39.4375 19.3816C40.4998 18.9194 41.4346 18.2891 42.242 17.4907C43.0281 16.7134 43.6443 15.7994 44.0904 14.749C44.5579 13.6774 44.7916 12.5324 44.7916 11.3138C44.7916 10.0953 44.5579 8.96072 44.0904 7.91023C43.6443 6.83872 43.0281 5.90378 42.242 5.10541C41.4346 4.30703 40.4998 3.67673 39.4375 3.21452C38.3751 2.7523 37.2385 2.52119 36.0274 2.52119C34.8164 2.52119 33.6797 2.7523 32.6174 3.21452C31.555 3.67673 30.6308 4.30703 29.8447 5.10541C29.0373 5.90378 28.3999 6.83872 27.9325 7.91023C27.4863 8.96072 27.2632 10.0953 27.2632 11.3138C27.2632 12.5324 27.4863 13.6774 27.9325 14.749C28.3999 15.7994 29.0373 16.7134 29.8447 17.4907Z" fill="#0A65B8"/>
<path d="M111.463 22.3125H103.751V19.8228H106.491V2.74179H101.488V5.10541H98.9702V0.252118H116.594V5.10541H114.076V2.74179H109.137V19.8228H111.463V22.3125Z" fill="white"/>
<path d="M134.793 22.3125H118.827V19.8228H120.611V2.74179H118.827V0.252118H134.347V5.10541H131.829V2.74179H123.256V9.9587H133.104V12.4484H123.256V19.8228H132.276V17.4592H134.793V22.3125Z" fill="white"/>
<path d="M153 22.3125H137.033V19.8228H138.818V2.74179H137.033V0.252118H144.108V2.74179H141.463V19.8228H150.482V17.4592H153V22.3125Z" fill="white"/>
<path d="M96.7301 22.3125H80.7634V19.8228H82.5481V2.74179H80.7634V0.252118H96.284V5.10541H93.7663V2.74179H85.1933V9.9587H95.041V12.4484H85.1933V19.8228H94.2124V17.4592H96.7301V22.3125Z" fill="#0A65B8"/>
<path d="M57.3843 22.3125H49.6719V19.8228H52.4445V2.74179H49.6719V0.252118H53.2413C55.0685 2.58422 56.8744 4.91632 58.6591 7.24842C60.465 9.55951 62.2816 11.8811 64.1088 14.2132C65.936 11.8811 67.742 9.55951 69.5267 7.24842C71.3326 4.91632 73.1492 2.58422 74.9764 0.252118H78.5458V2.74179H75.7731V19.8228H78.5458V22.3125H70.8333V19.8228H73.1279V7.50054C73.1492 7.33246 73.1598 7.16438 73.1598 6.9963L73.2235 6.49206C73.0536 6.72317 72.8836 6.96478 72.7136 7.2169C72.5436 7.46902 72.3737 7.71064 72.2037 7.94174L64.1088 18.3732L55.6633 7.43751C55.5146 7.24842 55.3871 7.09084 55.2809 6.96478C55.1959 6.83872 55.1003 6.68115 54.9941 6.49206L55.0578 6.9963C55.0791 7.16438 55.0897 7.33246 55.0897 7.50054V19.8228H57.3843V22.3125Z" fill="#0A65B8"/>
<path d="M7.71246 22.3125H0V19.8228H2.5177V2.74179H0V0.252118H7.71246V2.74179H5.16289V9.9587H17.2096V2.74179H14.66V0.252118H22.3725V2.74179H19.8548V19.8228H22.3725V22.3125H14.66V19.8228H17.2096V12.4484H5.16289V19.8228H7.71246V22.3125Z" fill="#0A65B8"/>
</svg>
