<svg width="152" height="132" viewBox="0 0 152 132" fill="none" xmlns="http://www.w3.org/2000/svg">
<path d="M118.164 131.553L118.733 114.762L106.145 112.856L105.378 131.741" fill="white"/>
<path d="M105.378 132C105.311 131.997 105.248 131.969 105.203 131.92C105.157 131.872 105.132 131.807 105.134 131.741L105.901 112.851C105.902 112.815 105.91 112.779 105.926 112.747C105.942 112.714 105.965 112.686 105.993 112.663C106.02 112.64 106.051 112.624 106.086 112.615C106.12 112.606 106.156 112.605 106.191 112.612L118.784 114.518C118.845 114.528 118.9 114.56 118.94 114.607C118.979 114.655 119 114.715 118.997 114.777L118.428 131.548C118.427 131.581 118.419 131.614 118.405 131.644C118.391 131.675 118.371 131.702 118.347 131.725C118.322 131.747 118.293 131.765 118.262 131.776C118.231 131.788 118.197 131.793 118.164 131.792C118.131 131.79 118.098 131.783 118.068 131.769C118.037 131.755 118.01 131.735 117.987 131.71C117.965 131.686 117.947 131.657 117.935 131.625C117.924 131.594 117.919 131.561 117.92 131.527L118.474 114.991L106.384 113.161L105.632 131.761C105.628 131.826 105.599 131.887 105.552 131.931C105.505 131.976 105.442 132 105.378 132Z" fill="#1E293B"/>
<path d="M56.7323 124.301L71.1348 107.225L84.0126 110.376L67.6028 127.162" fill="white"/>
<path d="M67.6029 127.421C67.5359 127.42 67.4719 127.393 67.425 127.345C67.4014 127.322 67.3826 127.294 67.3697 127.263C67.3569 127.233 67.3503 127.2 67.3503 127.167C67.3503 127.134 67.3569 127.101 67.3697 127.071C67.3826 127.04 67.4014 127.012 67.425 126.989L83.5198 110.518L71.2264 107.51L56.9256 124.468C56.8806 124.518 56.8182 124.55 56.7512 124.555C56.6841 124.561 56.6175 124.541 56.5647 124.499C56.5136 124.455 56.4817 124.392 56.476 124.325C56.4703 124.257 56.4912 124.19 56.5342 124.138L70.9672 107.062C70.9975 107.026 71.0374 106.999 71.0824 106.985C71.1274 106.971 71.1756 106.969 71.2213 106.981L84.0991 110.127C84.142 110.139 84.1811 110.162 84.213 110.193C84.2449 110.224 84.2687 110.262 84.2821 110.305C84.2939 110.348 84.2945 110.394 84.2838 110.437C84.2732 110.481 84.2516 110.521 84.2211 110.554L67.8112 127.325C67.786 127.355 67.7542 127.38 67.7181 127.397C67.682 127.413 67.6426 127.422 67.6029 127.421Z" fill="#1E293B"/>
<path d="M112.548 38.3382C112.548 38.3382 92.9724 43.7048 93.1604 44.4672C93.3484 45.2295 97.1701 59.3473 97.1701 59.3473L109.367 56.2981L112.548 38.3382Z" fill="#3B82F6"/>
<path d="M112.945 38.2212C112.945 38.2212 106.729 39.8881 102.918 42.0836C99.1063 44.279 100.153 67.6767 100.153 67.6767L128.394 73.3685C128.394 73.3685 133.771 58.1733 133.405 51.2363C133.039 44.2993 128.75 34.4605 112.945 38.2212Z" fill="#3B82F6"/>
<path d="M98.8828 56.2728C98.851 56.28 98.818 56.28 98.7862 56.2728C98.7228 56.2458 98.6724 56.1951 98.6458 56.1315C98.6192 56.0679 98.6185 55.9964 98.6439 55.9323C100.489 51.3941 103.269 44.4723 103.345 43.9895C103.345 43.9557 103.353 43.9224 103.367 43.8915C103.38 43.8606 103.4 43.8327 103.425 43.8095C103.449 43.7863 103.478 43.7683 103.51 43.7564C103.542 43.7446 103.575 43.7392 103.609 43.7405C103.679 43.7432 103.745 43.7727 103.793 43.8229C103.841 43.8732 103.868 43.9402 103.868 44.0099C103.868 44.4469 100.555 52.6493 99.1267 56.1305C99.1042 56.1753 99.0691 56.2125 99.0258 56.2378C98.9825 56.2631 98.9328 56.2752 98.8828 56.2728Z" fill="#1E293B"/>
<path d="M114.673 35.3702L112.68 41.3568C112.68 41.3568 112.63 44.9142 116.578 44.6042C117.745 44.4999 118.873 44.1376 119.882 43.5434C120.891 42.9492 121.756 42.1381 122.412 41.1688L124.079 30.4355C123.475 29.9086 123.091 29.1741 123.002 28.3773C122.915 27.7809 122.932 27.1739 123.053 26.5834C123.238 25.7905 123.534 25.0275 123.932 24.3168C122.054 24.0237 120.332 23.1008 119.048 21.6995C118.743 21.3271 118.458 20.9386 118.194 20.5358C118.072 20.3477 115.567 21.5217 115.303 21.6538C114.012 22.2229 112.911 23.1507 112.132 24.3269C111.615 25.3434 111.287 26.4456 111.166 27.5794C110.87 29.1375 110.72 30.7198 110.719 32.3057C110.749 35.3295 114.673 35.3702 114.673 35.3702Z" fill="white"/>
<path d="M116.085 44.8583C115.155 44.9029 114.244 44.5839 113.544 43.9689C112.859 43.2709 112.469 42.3351 112.457 41.3568C112.454 41.3331 112.454 41.3093 112.457 41.2856L114.352 35.5887C113.387 35.4972 110.516 35.0042 110.49 32.3209C110.492 30.723 110.644 29.1288 110.942 27.5591C111.074 26.3916 111.418 25.2582 111.959 24.2151C112.744 23.001 113.863 22.0393 115.181 21.4454C118.103 20.0021 118.296 20.2968 118.367 20.429C118.367 20.429 118.875 21.2218 119.201 21.5673C120.448 22.9347 122.127 23.8319 123.957 24.1084C123.993 24.1151 124.026 24.1302 124.055 24.1523C124.084 24.1745 124.107 24.2031 124.122 24.2358C124.137 24.2686 124.145 24.3045 124.143 24.3406C124.142 24.3768 124.133 24.4121 124.115 24.4438C123.727 25.1353 123.438 25.8777 123.256 26.6494C123.145 27.2153 123.129 27.796 123.21 28.3671C123.287 29.1038 123.64 29.7843 124.196 30.2729C124.231 30.2966 124.258 30.3299 124.274 30.3686C124.29 30.4074 124.295 30.45 124.288 30.4914L122.621 41.2246C122.616 41.2551 122.606 41.2843 122.59 41.311C121.92 42.3184 121.03 43.1615 119.988 43.7774C118.947 44.3933 117.779 44.7663 116.573 44.8684C116.416 44.8583 116.248 44.8583 116.085 44.8583ZM112.904 41.3974C112.928 42.2339 113.263 43.0313 113.844 43.6335C114.216 43.9423 114.65 44.1682 115.116 44.2961C115.582 44.4241 116.07 44.4511 116.548 44.3755C117.669 44.2717 118.754 43.9241 119.727 43.357C120.699 42.7899 121.536 42.017 122.179 41.0925L123.82 30.532C123.232 29.9704 122.858 29.2208 122.763 28.4128C122.67 27.7985 122.684 27.1727 122.804 26.563C122.967 25.8548 123.224 25.1712 123.566 24.5302C121.751 24.1913 120.096 23.2709 118.85 21.9078C118.586 21.608 118.194 21.0287 118.042 20.805C117.133 21.116 116.245 21.486 115.384 21.9129C114.145 22.4698 113.088 23.3646 112.335 24.4946C111.829 25.4911 111.505 26.5703 111.379 27.681C111.088 29.2243 110.938 30.791 110.932 32.3616C110.963 35.116 114.49 35.1872 114.652 35.1923C114.688 35.1924 114.724 35.2013 114.756 35.2181C114.787 35.2349 114.815 35.2592 114.835 35.2888C114.857 35.3183 114.872 35.3525 114.878 35.3887C114.884 35.4249 114.882 35.4621 114.871 35.4972L112.904 41.3974Z" fill="#1E293B"/>
<path d="M121.975 29.4751C122.168 29.0484 122.49 28.6929 122.895 28.4587C123.288 28.2549 123.712 28.1208 124.151 28.0623C124.386 28.0066 124.631 28.0066 124.867 28.0623C125.03 28.1149 125.18 28.1996 125.309 28.3114C125.639 28.5414 125.875 28.8822 125.975 29.2719C126.016 29.5943 125.98 29.9219 125.868 30.2273C125.773 30.5662 125.633 30.8909 125.452 31.1929C125.264 31.4904 125.02 31.7479 124.732 31.9501C124.445 32.1524 124.12 32.2956 123.777 32.3712C123.434 32.4469 123.079 32.4535 122.733 32.3909C122.387 32.3282 122.057 32.1973 121.762 32.006" fill="white"/>
<path d="M123.21 32.5958C122.657 32.5962 122.116 32.4374 121.65 32.1384C121.605 32.1092 121.574 32.0635 121.562 32.0112C121.551 31.9588 121.561 31.9041 121.589 31.8589C121.603 31.8361 121.622 31.8164 121.643 31.8009C121.665 31.7854 121.69 31.7745 121.716 31.7688C121.742 31.7631 121.769 31.7627 121.795 31.7677C121.822 31.7727 121.847 31.783 121.869 31.7979C122.142 31.9741 122.448 32.0944 122.768 32.152C123.088 32.2096 123.416 32.2032 123.734 32.1333C124.364 31.983 124.911 31.5928 125.259 31.0458C125.431 30.7583 125.565 30.4489 125.655 30.1259C125.754 29.8528 125.788 29.5607 125.757 29.2721C125.664 28.9311 125.455 28.6329 125.167 28.4285C125.055 28.3357 124.928 28.2634 124.791 28.2151C124.585 28.1699 124.372 28.1699 124.166 28.2151C123.751 28.2726 123.349 28.3997 122.977 28.5911C122.605 28.8067 122.313 29.1364 122.143 29.5313C122.133 29.556 122.118 29.5783 122.1 29.5971C122.081 29.6159 122.058 29.6308 122.034 29.6407C122.009 29.6507 121.983 29.6556 121.956 29.6551C121.929 29.6546 121.903 29.6488 121.879 29.638C121.854 29.6287 121.831 29.6142 121.812 29.5955C121.793 29.5768 121.777 29.5543 121.767 29.5294C121.757 29.5045 121.753 29.4779 121.753 29.4511C121.754 29.4243 121.761 29.3979 121.772 29.3738C121.978 28.8951 122.335 28.497 122.789 28.2405C123.201 28.027 123.646 27.8844 124.105 27.8187C124.372 27.7577 124.65 27.7577 124.918 27.8187C125.102 27.8818 125.274 27.9764 125.426 28.0982C125.794 28.3606 126.056 28.7466 126.163 29.1857C126.212 29.5386 126.174 29.8981 126.051 30.2326C125.951 30.5893 125.804 30.9311 125.614 31.249C125.412 31.5693 125.149 31.8465 124.839 32.0645C124.529 32.2826 124.18 32.4372 123.81 32.5195C123.614 32.5668 123.413 32.5924 123.21 32.5958Z" fill="#1E293B"/>
<path d="M113.656 38.5312C115.106 38.6776 116.562 38.3185 117.778 37.5148C119.709 36.1681 119.811 34.4656 119.811 34.4656C118.193 35.1661 116.433 35.4759 114.673 35.3702L113.656 38.5312Z" fill="#1E293B"/>
<path d="M114.236 38.7854C114.028 38.7878 113.821 38.7759 113.616 38.7499C113.583 38.7455 113.552 38.734 113.525 38.7164C113.497 38.6987 113.474 38.6753 113.457 38.6477C113.439 38.6201 113.428 38.589 113.424 38.5566C113.42 38.5242 113.423 38.4913 113.433 38.4602L114.449 35.3042C114.465 35.2578 114.495 35.2176 114.535 35.1894C114.576 35.1611 114.624 35.1461 114.673 35.1467C116.394 35.2306 118.111 34.914 119.689 34.2218C119.723 34.2031 119.761 34.1933 119.8 34.1933C119.839 34.1933 119.878 34.2031 119.912 34.2218C119.945 34.2434 119.971 34.273 119.989 34.3077C120.007 34.3423 120.015 34.381 120.014 34.42C120.014 34.4962 119.892 36.2698 117.895 37.6674C116.816 38.401 115.54 38.7908 114.236 38.7854ZM113.946 38.328C115.253 38.3939 116.547 38.0376 117.635 37.3116C118.537 36.7256 119.197 35.8344 119.495 34.8011C118.009 35.3806 116.42 35.6554 114.825 35.6092L113.946 38.328Z" fill="#1E293B"/>
<path d="M117.32 25.0996C117.32 25.0996 114.779 27.6407 115.135 28.2708C115.491 28.901 116.889 28.779 116.889 28.779" fill="white"/>
<path d="M116.705 29.0231C116.268 29.0231 115.293 28.957 114.947 28.3878C114.53 27.7068 116.36 25.7502 117.168 24.9422C117.189 24.9208 117.214 24.9039 117.241 24.8923C117.269 24.8807 117.298 24.8747 117.328 24.8747C117.358 24.8747 117.387 24.8807 117.415 24.8923C117.442 24.9039 117.467 24.9208 117.488 24.9422C117.53 24.9849 117.553 25.0424 117.553 25.1023C117.553 25.1621 117.53 25.2196 117.488 25.2624C116.197 26.5634 115.181 27.8898 115.328 28.154C115.567 28.5555 116.548 28.586 116.853 28.5708C116.912 28.5692 116.97 28.5905 117.014 28.6301C117.059 28.6698 117.086 28.7249 117.092 28.7842C117.093 28.8136 117.089 28.8429 117.079 28.8706C117.069 28.8982 117.053 28.9236 117.033 28.9454C117.014 28.9671 116.99 28.9847 116.963 28.9971C116.936 29.0096 116.908 29.0167 116.878 29.018L116.705 29.0231Z" fill="#1E293B"/>
<path d="M113.422 30.268L118.367 30.2019C118.367 30.2019 118.144 33.556 115.267 33.7593C112.391 33.9626 113.422 30.268 113.422 30.268Z" fill="#1E293B"/>
<path d="M118.489 25.1047C118.554 24.9649 118.654 24.8444 118.78 24.7553C118.906 24.6661 119.052 24.6114 119.206 24.5965C119.775 24.505 120.065 25.1707 120.065 25.1707" fill="white"/>
<path d="M120.065 25.3741C120.021 25.3749 119.978 25.3629 119.941 25.3394C119.903 25.3159 119.874 25.282 119.856 25.242C119.856 25.242 119.633 24.7338 119.241 24.7998C119.127 24.811 119.017 24.8515 118.923 24.9174C118.828 24.9833 118.753 25.0723 118.703 25.1759C118.682 25.2322 118.64 25.2781 118.586 25.3037C118.532 25.3294 118.47 25.3328 118.413 25.3131C118.358 25.2935 118.313 25.2533 118.288 25.2012C118.262 25.149 118.258 25.0889 118.276 25.0336C118.349 24.8513 118.471 24.6924 118.627 24.5734C118.784 24.4544 118.97 24.3799 119.165 24.3577C119.897 24.2357 120.253 25.0285 120.268 25.0641C120.28 25.0911 120.286 25.1202 120.286 25.1496C120.287 25.1791 120.282 25.2084 120.271 25.2358C120.26 25.2632 120.244 25.2881 120.223 25.3093C120.203 25.3304 120.178 25.3472 120.151 25.3588L120.065 25.3741Z" fill="#1E293B"/>
<path d="M113.91 24.6724C113.975 24.5326 114.075 24.4122 114.201 24.3231C114.327 24.2339 114.473 24.1792 114.627 24.1642C115.196 24.0677 115.486 24.7385 115.486 24.7385" fill="white"/>
<path d="M115.486 24.9469C115.441 24.9473 115.398 24.9345 115.361 24.91C115.323 24.8856 115.294 24.8506 115.277 24.8097C115.277 24.8097 115.054 24.3014 114.662 24.3726C114.548 24.3829 114.437 24.423 114.343 24.4889C114.248 24.5549 114.173 24.6444 114.124 24.7487C114.103 24.8049 114.061 24.8509 114.007 24.8765C113.953 24.9022 113.891 24.9055 113.834 24.8859C113.779 24.8652 113.734 24.8241 113.708 24.7711C113.683 24.7181 113.679 24.6573 113.697 24.6013C113.771 24.4196 113.893 24.2612 114.05 24.1424C114.206 24.0236 114.391 23.9487 114.586 23.9254C115.318 23.8034 115.674 24.6013 115.689 24.6318C115.701 24.6587 115.708 24.6879 115.709 24.7175C115.71 24.7472 115.705 24.7767 115.694 24.8043C115.683 24.8319 115.666 24.8569 115.646 24.8779C115.625 24.899 115.6 24.9155 115.572 24.9265C115.545 24.9399 115.516 24.9469 115.486 24.9469Z" fill="#1E293B"/>
<path d="M127.83 73.0079L123.785 126.984L56.5394 113.237L101.241 67.377L127.83 73.0079Z" fill="#1E293B"/>
<path d="M98.8828 33.4135L19.9081 46.576L54.6488 11.2661L98.8828 33.4135Z" fill="#1E293B"/>
<path d="M19.9081 46.8305C19.8579 46.8308 19.8088 46.8163 19.7669 46.7887C19.725 46.7611 19.6921 46.7217 19.6726 46.6755C19.653 46.6293 19.6476 46.5784 19.6569 46.5291C19.6663 46.4798 19.69 46.4344 19.7251 46.3986L54.4658 11.0836C54.5039 11.0458 54.5529 11.0211 54.6058 11.0129C54.6587 11.0047 54.7129 11.0134 54.7606 11.0378L98.9742 33.1904C99.0236 33.2124 99.0641 33.2505 99.0891 33.2985C99.114 33.3465 99.1219 33.4016 99.1114 33.4546C99.1066 33.5074 99.0853 33.5573 99.0507 33.5974C99.0161 33.6375 98.9698 33.6658 98.9183 33.6783L19.9487 46.8255L19.9081 46.8305ZM54.7047 11.5765L20.6551 46.1953L98.0696 33.292L54.7047 11.5765Z" fill="#1E293B"/>
<path d="M106.175 86.3939L31.678 99.7953L20.0096 47.0438L98.9437 33.8814L106.175 86.3939Z" fill="#1E293B"/>
<path d="M31.683 100.049C31.6249 100.051 31.5682 100.031 31.5227 99.9952C31.4773 99.959 31.4459 99.9081 31.434 99.8512L19.7454 47.0947C19.7314 47.0281 19.7442 46.9587 19.7809 46.9015C19.8001 46.8717 19.8254 46.8462 19.8552 46.8269C19.885 46.8077 19.9186 46.795 19.9537 46.7897L98.9182 33.6273C98.9861 33.6169 99.0554 33.6333 99.1114 33.673C99.1391 33.6934 99.1625 33.7193 99.1799 33.749C99.1974 33.7787 99.2087 33.8116 99.213 33.8458L106.445 86.3584C106.45 86.3908 106.448 86.4238 106.441 86.4557C106.433 86.4875 106.419 86.5175 106.4 86.5439C106.38 86.5704 106.356 86.5927 106.328 86.6097C106.3 86.6267 106.269 86.638 106.236 86.643L31.7237 100.044L31.683 100.049ZM20.3146 47.2471L31.8762 99.5056L105.891 86.1856L98.7302 34.1863L20.3146 47.2471Z" fill="#1E293B"/>
<path d="M37.9341 82.3385C37.9341 82.3385 24.2126 39.9849 17.606 27.107L91.1581 7.07367L95.7319 72.6318L37.9341 82.3385Z" fill="#3B82F6"/>
<path d="M30.489 34.5164C30.4324 34.5167 30.3775 34.4977 30.3331 34.4626C30.2888 34.4275 30.2577 34.3783 30.2451 34.3232C30.2279 34.2586 30.237 34.1897 30.2703 34.1317C30.3036 34.0736 30.3584 34.0311 30.4229 34.0132L84.5109 19.9919C84.5783 19.9751 84.6496 19.9857 84.7092 20.0214C84.7688 20.0572 84.8117 20.1151 84.8285 20.1825C84.8454 20.2499 84.8348 20.3212 84.799 20.3808C84.7633 20.4404 84.7054 20.4833 84.638 20.5001L30.55 34.5062L30.489 34.5164Z" fill="white"/>
<path d="M32.7758 43.3845C32.7183 43.3855 32.6623 43.3662 32.6176 43.3299C32.573 43.2936 32.5426 43.2428 32.5318 43.1863C32.5244 43.1539 32.5235 43.1203 32.5292 43.0876C32.535 43.0548 32.5472 43.0236 32.5652 42.9956C32.5832 42.9677 32.6066 42.9436 32.634 42.9249C32.6615 42.9061 32.6924 42.893 32.725 42.8864L85.0952 31.1368C85.1626 31.1226 85.2329 31.1358 85.2906 31.1735C85.3482 31.2111 85.3886 31.2701 85.4027 31.3375C85.4169 31.4049 85.4037 31.4752 85.366 31.5328C85.3284 31.5905 85.2694 31.6308 85.202 31.645L32.852 43.3794L32.7758 43.3845Z" fill="white"/>
<path d="M37.2631 51.6836C37.2042 51.6846 37.1469 51.6647 37.1014 51.6275C37.0558 51.5903 37.0249 51.5382 37.0141 51.4803C37.0074 51.4476 37.0072 51.4139 37.0135 51.3812C37.0199 51.3484 37.0326 51.3172 37.051 51.2893C37.0694 51.2615 37.0932 51.2376 37.1208 51.2189C37.1485 51.2002 37.1795 51.1872 37.2123 51.1805L87.2956 41.4535C87.328 41.4469 87.3614 41.4467 87.3938 41.4531C87.4263 41.4595 87.4571 41.4723 87.4845 41.4908C87.512 41.5092 87.5355 41.533 87.5536 41.5606C87.5718 41.5882 87.5843 41.6192 87.5904 41.6517C87.5978 41.6844 87.5985 41.7183 87.5924 41.7514C87.5864 41.7844 87.5737 41.8159 87.5552 41.8439C87.5367 41.8719 87.5127 41.8959 87.4847 41.9144C87.4567 41.9329 87.4252 41.9455 87.3922 41.9515L37.3088 51.6785L37.2631 51.6836Z" fill="white"/>
<path d="M39.6467 62.2746C39.5793 62.28 39.5125 62.2584 39.4611 62.2146C39.4096 62.1708 39.3777 62.1083 39.3723 62.0409C39.3669 61.9735 39.3885 61.9067 39.4323 61.8552C39.4762 61.8038 39.5386 61.7718 39.606 61.7664L87.1128 54.0367C87.1802 54.0259 87.2491 54.0423 87.3044 54.0824C87.3597 54.1224 87.3968 54.1827 87.4076 54.2501C87.4184 54.3175 87.4019 54.3864 87.3619 54.4417C87.3219 54.497 87.2615 54.5341 87.1941 54.5449L39.6874 62.2696L39.6467 62.2746Z" fill="white"/>
<path d="M64.6908 67.4482L20.0096 47.0438L31.678 99.7953L106.175 86.3939L98.9437 33.8814L64.6908 67.4482Z" fill="white"/>
<path d="M31.6829 100.049C31.6248 100.05 31.5681 100.031 31.5226 99.995C31.4772 99.9588 31.4458 99.9078 31.4339 99.8509L19.7453 47.0944C19.7351 47.0481 19.7381 46.9999 19.7539 46.9553C19.7698 46.9106 19.7977 46.8712 19.8347 46.8416C19.8717 46.812 19.9163 46.7934 19.9633 46.7877C20.0104 46.7821 20.0581 46.7898 20.101 46.8098L64.6246 67.1379L98.7657 33.6779C98.7993 33.6442 98.8416 33.6206 98.8879 33.6098C98.9342 33.599 98.9826 33.6015 99.0276 33.6168C99.0726 33.6322 99.1124 33.6598 99.1425 33.6967C99.1725 33.7335 99.1917 33.7781 99.1977 33.8252L106.429 86.3378C106.434 86.3702 106.433 86.4032 106.425 86.4351C106.418 86.4669 106.404 86.4969 106.384 86.5234C106.365 86.5498 106.341 86.5722 106.313 86.5891C106.285 86.6061 106.253 86.6174 106.221 86.6224L31.7236 100.044L31.6829 100.049ZM20.3653 47.4857L31.8761 99.5053L105.891 86.1854L98.7758 34.4148L64.8686 67.6309C64.8313 67.6664 64.7842 67.6898 64.7334 67.698C64.6826 67.7062 64.6305 67.6987 64.584 67.6766L20.3653 47.4857Z" fill="#1E293B"/>
<path d="M106.181 86.3938L31.6831 99.7951L64.6959 67.448L106.181 86.3938Z" fill="white"/>
<path d="M31.6831 100.049C31.636 100.05 31.5897 100.037 31.5493 100.013C31.5089 99.989 31.4761 99.954 31.4544 99.9122C31.4298 99.8642 31.4215 99.8095 31.4306 99.7564C31.4398 99.7032 31.466 99.6545 31.5052 99.6175L64.5384 67.2653C64.5756 67.2297 64.6227 67.2063 64.6736 67.1982C64.7244 67.19 64.7765 67.1975 64.823 67.2196L106.302 86.1603C106.352 86.1833 106.392 86.2212 106.419 86.2687C106.445 86.3161 106.456 86.3706 106.45 86.4245C106.443 86.4777 106.42 86.5275 106.384 86.5668C106.347 86.606 106.299 86.6327 106.247 86.6431L31.7288 100.049H31.6831ZM64.7467 67.7532L32.4505 99.3989L105.332 86.2873L64.7467 67.7532Z" fill="#1E293B"/>
<path d="M106.181 86.3938L31.6831 99.7951L64.6959 67.448L106.181 86.3938Z" fill="white"/>
<path d="M31.6831 100.049C31.636 100.05 31.5897 100.037 31.5493 100.013C31.5089 99.989 31.4761 99.954 31.4544 99.9122C31.4298 99.8642 31.4215 99.8095 31.4306 99.7564C31.4398 99.7032 31.466 99.6545 31.5052 99.6175L64.5384 67.2653C64.5756 67.2297 64.6227 67.2063 64.6736 67.1982C64.7244 67.19 64.7765 67.1975 64.823 67.2196L106.302 86.1603C106.352 86.1833 106.392 86.2212 106.419 86.2687C106.445 86.3161 106.456 86.3706 106.45 86.4245C106.443 86.4777 106.42 86.5275 106.384 86.5668C106.347 86.606 106.299 86.6327 106.247 86.6431L31.7288 100.049H31.6831ZM64.7467 67.7532L32.4505 99.3989L105.332 86.2873L64.7467 67.7532Z" fill="#1E293B"/>
<path d="M100.997 13.7056C100.997 13.7056 99.9143 17.7712 96.4941 17.8729C96.4941 17.8729 100.102 18.8893 100.86 22.2739C101.196 21.3348 101.751 20.4895 102.479 19.8081C103.208 19.1266 104.088 18.6287 105.047 18.3556C104.065 17.9363 103.191 17.3001 102.489 16.4948C101.788 15.6895 101.277 14.736 100.997 13.7056Z" fill="#E2E8F0"/>
<path d="M2.78162 44.5991C2.78162 44.5991 5.51066 48.5021 3.09162 51.5209C3.09162 51.5209 6.59313 49.1425 10.0692 50.9568C9.50378 49.9833 9.17883 48.8889 9.12137 47.7646C9.06392 46.6403 9.27563 45.5185 9.73891 44.4924C9.73891 44.4924 6.76592 46.2915 2.78162 44.5991Z" fill="#E2E8F0"/>
<path d="M27.2618 12.7756C27.2618 12.7756 27.8361 19.5753 22.688 21.5726C22.688 21.5726 28.7305 21.1457 31.734 25.8923C31.734 25.8923 31.5205 20.6883 35.9724 17.6543C35.9317 17.6543 30.9615 17.7458 27.2618 12.7756Z" fill="#E2E8F0"/>
<path d="M125.071 46.9978C125.071 46.9978 85.5782 67.0261 79.5661 68.1746C73.5541 69.3232 66.4037 67.3158 66.6883 69.0335C66.9729 70.7512 70.4083 71.605 70.4083 71.605C70.4083 71.605 59.5379 73.3227 60.107 74.4713C60.6762 75.6198 67.8368 74.1816 67.8368 74.1816C67.8368 74.1816 58.9636 76.7582 60.9659 77.9016C62.9682 79.0451 69.2649 76.4736 69.2649 76.4736C69.2649 76.4736 59.8224 81.3371 62.399 81.6217C64.9756 81.9063 69.5545 79.3347 69.5545 79.3347C69.5545 79.3347 62.399 83.0548 65.2602 83.3394C68.1214 83.624 110.76 68.4592 125.071 59.8757" fill="white"/>
<path d="M65.3464 83.5989H65.2346C64.701 83.543 64.3961 83.36 64.3402 83.0551C64.2538 82.5977 64.8891 81.9574 65.7733 81.3069C64.6892 81.7277 63.5306 81.9231 62.3684 81.8812C61.9771 81.8354 61.7535 81.6881 61.7077 81.4289C61.5654 80.6666 64.0658 79.0556 66.3883 77.7393C64.4215 78.3136 61.9974 78.7913 60.8387 78.1306C60.7064 78.0754 60.5949 77.9799 60.5201 77.8576C60.4452 77.7353 60.4109 77.5926 60.422 77.4496C60.5185 76.6467 62.5818 75.7065 64.5689 74.9849C62.4853 75.244 60.2543 75.3304 59.8782 74.5885C59.8443 74.5233 59.8267 74.451 59.8267 74.3776C59.8267 74.3041 59.8443 74.2318 59.8782 74.1667C60.3864 73.1502 66.561 71.9966 69.3206 71.5342C68.228 71.1225 66.6373 70.3145 66.4289 69.0795C66.4078 68.9754 66.4115 68.8678 66.4397 68.7653C66.468 68.6629 66.52 68.5686 66.5915 68.49C67.0997 67.9259 68.6548 68.0174 71.0231 68.1546C73.5234 68.2969 76.6133 68.4748 79.5101 67.931C85.4154 66.8028 124.552 46.9727 124.943 46.7745C125.004 46.7442 125.074 46.7389 125.139 46.7598C125.204 46.7807 125.257 46.8261 125.289 46.8863C125.319 46.9463 125.324 47.0159 125.303 47.0797C125.282 47.1435 125.237 47.1964 125.177 47.2268C123.561 48.045 85.5831 67.2907 79.6066 68.429C76.6692 68.9881 73.5082 68.8051 70.9672 68.6628C69.0716 68.551 67.2827 68.4494 66.9422 68.8254C66.9226 68.8481 66.9091 68.8754 66.9029 68.9047C66.8967 68.934 66.8979 68.9645 66.9066 68.9932C67.1201 70.2687 69.5239 71.1378 70.4386 71.3665C70.506 71.3698 70.5693 71.3998 70.6146 71.4499C70.6599 71.4999 70.6834 71.5659 70.68 71.6333C70.6767 71.7007 70.6467 71.764 70.5966 71.8092C70.5466 71.8545 70.4806 71.878 70.4132 71.8747C65.7327 72.6116 60.5338 73.7906 60.3 74.4157C60.5998 74.9747 64.4012 74.624 67.7502 73.9532C67.7836 73.9452 67.8182 73.9438 67.8521 73.9492C67.886 73.9546 67.9185 73.9666 67.9478 73.9845C67.977 74.0024 68.0025 74.026 68.0227 74.0537C68.0428 74.0815 68.0573 74.113 68.0653 74.1463C68.0733 74.1797 68.0747 74.2143 68.0693 74.2482C68.064 74.2821 68.052 74.3146 68.034 74.3439C68.0161 74.3731 67.9926 74.3986 67.9648 74.4187C67.937 74.4389 67.9056 74.4534 67.8722 74.4614C64.574 75.4168 60.9708 76.8652 60.8895 77.5411C60.8895 77.6072 60.9911 77.6783 61.0572 77.719C62.6123 78.6083 67.4148 76.977 69.1326 76.2706C69.1941 76.2463 69.2626 76.2465 69.324 76.271C69.3854 76.2956 69.4351 76.3427 69.4629 76.4027C69.4895 76.4623 69.4922 76.5298 69.4705 76.5913C69.4487 76.6528 69.4042 76.7035 69.346 76.7331C65.9258 78.4965 62.2312 80.758 62.1702 81.3628C62.242 81.3826 62.315 81.3979 62.3887 81.4085C64.3097 81.622 67.4707 80.1329 68.7971 79.4621L69.3968 79.142C69.4562 79.1114 69.5252 79.1055 69.5889 79.1255C69.6527 79.1455 69.706 79.1897 69.7373 79.2487C69.7535 79.2773 69.7638 79.3089 69.7677 79.3416C69.7716 79.3743 69.769 79.4074 69.7601 79.4391C69.7511 79.4707 69.7359 79.5003 69.7154 79.5261C69.695 79.5518 69.6696 79.5733 69.6408 79.5892C69.6001 79.5892 69.3663 79.7467 69.0004 79.9348C66.6271 81.2256 64.7264 82.5977 64.8027 82.984C64.8027 82.984 64.8941 83.0805 65.2499 83.1161H65.3769C66.9015 83.1161 77.3248 79.8026 90.7871 74.7206C98.1458 71.9458 116.197 64.9275 124.943 59.6829C124.972 59.6621 125.004 59.6474 125.038 59.6397C125.073 59.632 125.108 59.6316 125.143 59.6384C125.177 59.6452 125.21 59.659 125.239 59.6791C125.268 59.6992 125.292 59.7251 125.311 59.7551C125.329 59.7851 125.341 59.8186 125.346 59.8534C125.35 59.8883 125.348 59.9237 125.338 59.9576C125.328 59.9914 125.312 60.0228 125.289 60.0499C125.267 60.077 125.239 60.0991 125.208 60.1149C111.405 68.3681 69.3663 83.5989 65.3464 83.5989Z" fill="#1E293B"/>
<path d="M117.772 63.9262C117.772 63.9262 111.674 49.6203 112.238 49.4272C112.802 49.2341 124.435 41.6059 125.406 42.1802C126.376 42.7545 129.979 53.818 128.836 57.0604C127.693 60.3027 117.772 63.9262 117.772 63.9262Z" fill="#3B82F6"/>
<path d="M119.297 63.9975C119.242 63.9974 119.189 63.9802 119.144 63.9483C119.1 63.9164 119.066 63.8715 119.048 63.8196C119.027 63.7536 119.033 63.682 119.065 63.6202C119.096 63.5584 119.15 63.5114 119.216 63.4893C119.302 63.4588 127.769 60.6027 131.113 56.3237C131.134 56.2968 131.161 56.2745 131.191 56.2579C131.221 56.2413 131.253 56.2309 131.287 56.2271C131.321 56.2233 131.356 56.2263 131.389 56.2359C131.422 56.2455 131.452 56.2615 131.479 56.283C131.507 56.3035 131.53 56.3294 131.547 56.3591C131.565 56.3889 131.576 56.4219 131.58 56.4561C131.585 56.4904 131.582 56.5251 131.572 56.5583C131.563 56.5914 131.547 56.6222 131.525 56.6489C128.084 61.0499 119.734 63.8705 119.384 63.9874C119.356 63.9957 119.326 63.9991 119.297 63.9975Z" fill="#1E293B"/>
<path d="M126.061 32.9104C125.999 32.909 125.94 32.8855 125.894 32.8441C125.848 32.8027 125.818 32.7461 125.81 32.6847C125.802 32.6232 125.816 32.5609 125.85 32.5091C125.884 32.4572 125.936 32.4193 125.995 32.4022C126.944 32.1191 127.817 31.6264 128.55 30.9605C129.283 30.2946 129.856 29.4726 130.229 28.5551C130.969 26.6799 131.146 24.6291 130.737 22.6548C130.452 20.7463 129.623 18.9605 128.348 17.5118C127.71 16.8106 126.921 16.2633 126.041 15.9112C125.161 15.5591 124.212 15.4113 123.266 15.479L122.895 15.5298C122.618 15.5763 122.338 15.6018 122.057 15.6061C121.714 15.5896 121.374 15.5402 121.04 15.4587L120.822 15.413C119.031 15.0548 117.178 15.1549 115.435 15.704C113.693 16.253 112.118 17.2333 110.856 18.5539C109.593 19.8744 108.685 21.4924 108.215 23.2577C107.745 25.0229 107.729 26.8783 108.168 28.6516C108.29 29.1598 108.584 29.9679 109.209 30.0441C109.244 30.0472 109.277 30.0573 109.308 30.0737C109.338 30.0902 109.365 30.1126 109.386 30.1397C109.407 30.1669 109.423 30.198 109.432 30.2314C109.441 30.2648 109.443 30.2996 109.438 30.3338C109.434 30.3679 109.424 30.401 109.407 30.431C109.39 30.461 109.368 30.4874 109.341 30.5087C109.314 30.53 109.283 30.5457 109.25 30.5549C109.217 30.5642 109.182 30.5667 109.148 30.5625C108.452 30.4761 107.924 29.8459 107.659 28.7787C107.195 26.9173 107.209 24.9686 107.7 23.114C108.191 21.2594 109.143 19.5592 110.468 18.1715C111.793 16.7839 113.447 15.7539 115.277 15.1774C117.107 14.6009 119.053 14.4966 120.934 14.8743L121.162 14.92C121.469 14.9972 121.782 15.0432 122.097 15.0572C122.349 15.0505 122.601 15.0267 122.85 14.9861C122.982 14.9861 123.109 14.9454 123.241 14.9352C124.266 14.8528 125.296 15.0085 126.251 15.3903C127.206 15.772 128.059 16.3694 128.745 17.1358C130.098 18.656 130.98 20.5361 131.286 22.5481C131.711 24.6245 131.518 26.78 130.732 28.7482C130.33 29.7386 129.71 30.6257 128.918 31.3436C128.126 32.0616 127.183 32.5919 126.158 32.8951L126.061 32.9104Z" fill="#1E293B"/>
<path d="M122.092 15.3318C122.092 15.3318 124.735 13.3702 129.029 14.4171C133.324 15.464 134.945 23.2903 130.935 27.488C130.935 27.488 131.56 16.0484 122.092 15.3318Z" fill="#1E293B"/>
<path d="M137.374 39.868H137.349C135.316 39.7428 133.367 39.0078 131.758 37.759C130.952 37.1226 130.303 36.3086 129.862 35.3805C129.421 34.4523 129.201 33.4349 129.217 32.4076C129.218 32.3729 129.226 32.3386 129.24 32.307C129.254 32.2754 129.275 32.247 129.301 32.2237C129.326 32.2003 129.357 32.1825 129.389 32.1713C129.422 32.1601 129.457 32.1558 129.492 32.1586C129.526 32.1599 129.56 32.168 129.591 32.1826C129.623 32.1972 129.651 32.2178 129.674 32.2434C129.697 32.269 129.715 32.2989 129.727 32.3315C129.738 32.364 129.743 32.3985 129.741 32.433C129.726 33.3774 129.93 34.3125 130.335 35.1656C130.741 36.0188 131.337 36.767 132.078 37.3524C133.32 38.3289 134.792 38.9694 136.352 39.2124C135.924 38.7322 135.651 38.1333 135.57 37.4947C135.487 36.5319 135.635 35.5631 136.002 34.6691C136.614 33.1506 137.361 31.6897 138.233 30.3036C139.498 28.1438 140.693 26.1059 140.957 23.7377C141.112 22.3697 140.929 20.9847 140.425 19.7036C139.921 18.4226 139.111 17.2844 138.066 16.3885C137.02 15.4926 135.772 14.8664 134.429 14.5644C133.086 14.2624 131.689 14.2939 130.361 14.6561C130.293 14.6735 130.222 14.6641 130.161 14.63C130.101 14.5959 130.056 14.5397 130.036 14.4731C130.026 14.4401 130.024 14.4055 130.028 14.3715C130.032 14.3375 130.043 14.3046 130.06 14.2748C130.077 14.245 130.1 14.2189 130.127 14.198C130.154 14.1771 130.185 14.1618 130.218 14.153C131.63 13.7675 133.115 13.7338 134.543 14.0549C135.971 14.3759 137.299 15.0418 138.41 15.9945C139.521 16.9472 140.382 18.1575 140.917 19.5197C141.452 20.882 141.646 22.3546 141.48 23.8088C141.201 26.2837 139.92 28.4639 138.685 30.5781C137.842 31.9337 137.12 33.3604 136.525 34.8419C136.18 35.6542 136.04 36.5392 136.119 37.4185C136.158 37.8317 136.304 38.2276 136.541 38.5679C136.779 38.9081 137.101 39.1809 137.476 39.3598C137.532 39.3831 137.578 39.425 137.607 39.4784C137.635 39.5318 137.645 39.5935 137.634 39.6531C137.622 39.7127 137.591 39.7666 137.545 39.8057C137.498 39.8449 137.44 39.8669 137.379 39.868H137.374Z" fill="#1E293B"/>
<path d="M114.053 51.5515C113.988 51.5629 113.921 51.5496 113.865 51.5142C113.809 51.4788 113.769 51.4238 113.752 51.3601C113.735 51.2964 113.742 51.2286 113.772 51.17C113.802 51.1113 113.854 51.0661 113.915 51.0433L124.359 44.6044C124.418 44.5685 124.49 44.5574 124.557 44.5736C124.625 44.5898 124.683 44.6319 124.72 44.6908C124.738 44.72 124.751 44.7527 124.756 44.7868C124.762 44.8209 124.761 44.8558 124.753 44.8894C124.745 44.923 124.73 44.9547 124.709 44.9825C124.689 45.0104 124.663 45.0339 124.633 45.0516L114.19 51.4905C114.151 51.5235 114.103 51.5446 114.053 51.5515Z" fill="#1E293B"/>
<path d="M0.448985 70.5431C0.386984 70.5431 0.327522 70.5184 0.283681 70.4746C0.23984 70.4308 0.21521 70.3713 0.21521 70.3093C0.21521 70.2473 0.23984 70.1878 0.283681 70.144C0.327522 70.1001 0.386984 70.0755 0.448985 70.0755L16.2033 69.2167C16.2347 69.2131 16.2665 69.2162 16.2967 69.2258C16.3268 69.2354 16.3545 69.2513 16.3781 69.2724C16.4016 69.2936 16.4204 69.3195 16.4332 69.3484C16.446 69.3773 16.4525 69.4086 16.4523 69.4403C16.4551 69.5014 16.4337 69.5613 16.3929 69.6069C16.352 69.6525 16.2949 69.6803 16.2338 69.6842L0.479476 70.5431H0.448985Z" fill="#E2E8F0"/>
<path d="M38.2235 118.909C38.1786 118.909 38.1344 118.897 38.0965 118.873C38.0446 118.839 38.0082 118.786 37.9949 118.725C37.9816 118.664 37.9925 118.601 38.0253 118.548L45.7551 106.529C45.7707 106.501 45.7919 106.477 45.8174 106.457C45.8428 106.438 45.872 106.424 45.903 106.416C45.934 106.409 45.9663 106.407 45.9978 106.413C46.0293 106.418 46.0594 106.43 46.0863 106.447C46.1131 106.465 46.136 106.487 46.1537 106.514C46.1714 106.541 46.1834 106.571 46.189 106.602C46.1947 106.633 46.1938 106.666 46.1865 106.697C46.1791 106.728 46.1655 106.757 46.1464 106.783L38.4421 118.802C38.4189 118.838 38.3863 118.867 38.3478 118.886C38.3092 118.905 38.2662 118.913 38.2235 118.909Z" fill="#E2E8F0"/>
<path d="M9.03241 99.4494C8.99073 99.4491 8.94991 99.4376 8.91416 99.4161C8.87842 99.3947 8.84906 99.3641 8.82913 99.3275C8.814 99.3009 8.80435 99.2715 8.80077 99.2411C8.79718 99.2108 8.79973 99.18 8.80826 99.1506C8.81679 99.1212 8.83113 99.0938 8.85043 99.0701C8.86972 99.0464 8.89359 99.0267 8.92061 99.0124L20.655 92.4261C20.7098 92.3967 20.7739 92.3898 20.8337 92.4068C20.8934 92.4239 20.9442 92.4636 20.9752 92.5176C20.9906 92.5442 21.0006 92.5737 21.0047 92.6042C21.0087 92.6348 21.0066 92.6659 20.9986 92.6956C20.9905 92.7254 20.9767 92.7532 20.9579 92.7776C20.939 92.802 20.9155 92.8224 20.8888 92.8377L9.15438 99.4444C9.11489 99.4568 9.0728 99.4586 9.03241 99.4494Z" fill="#E2E8F0"/>
<path d="M96.0318 8.15604C95.9942 8.15593 95.9571 8.14674 95.9238 8.12923C95.8905 8.11173 95.8618 8.08643 95.8404 8.0555C95.8189 8.02456 95.8053 7.9889 95.8005 7.95154C95.7958 7.91419 95.8002 7.87625 95.8133 7.84095L98.6745 0.136603C98.699 0.0828585 98.743 0.0404015 98.7976 0.0177698C98.8522 -0.00486196 98.9133 -0.00598954 98.9687 0.0146146C99.024 0.0352188 99.0695 0.076026 99.0961 0.128829C99.1226 0.181631 99.1281 0.242512 99.1115 0.299227L96.2504 8.02391C96.2312 8.06517 96.2002 8.09978 96.1613 8.12332C96.1223 8.14685 96.0773 8.15825 96.0318 8.15604Z" fill="#E2E8F0"/>
<path d="M139.244 54.804C139.189 54.8047 139.136 54.7856 139.094 54.7501C139.052 54.7146 139.024 54.6652 139.016 54.6109C139.011 54.5806 139.012 54.5495 139.019 54.5195C139.025 54.4895 139.038 54.4611 139.056 54.4361C139.074 54.4111 139.097 54.3899 139.123 54.3736C139.149 54.3574 139.178 54.3465 139.209 54.3416L151.512 52.3088C151.574 52.2999 151.636 52.315 151.686 52.351C151.736 52.387 151.771 52.4411 151.782 52.5019C151.787 52.5323 151.786 52.5633 151.779 52.5933C151.772 52.6233 151.759 52.6517 151.741 52.6767C151.723 52.7017 151.7 52.723 151.674 52.7392C151.648 52.7554 151.619 52.7663 151.589 52.7712L139.28 54.7786L139.244 54.804Z" fill="#E2E8F0"/>
<path d="M138.96 105.746C138.924 105.747 138.889 105.739 138.857 105.723C138.825 105.707 138.798 105.683 138.777 105.655L131.047 95.9278C131.009 95.8782 130.993 95.816 131 95.7544C131.008 95.6927 131.039 95.6364 131.088 95.5974C131.111 95.5781 131.138 95.5636 131.167 95.5549C131.197 95.5462 131.227 95.5434 131.258 95.5468C131.288 95.5501 131.317 95.5594 131.344 95.5742C131.371 95.589 131.394 95.609 131.413 95.633L139.143 105.365C139.162 105.389 139.176 105.417 139.184 105.447C139.193 105.477 139.195 105.508 139.191 105.539C139.188 105.569 139.178 105.599 139.162 105.626C139.147 105.653 139.126 105.677 139.102 105.695C139.061 105.727 139.011 105.745 138.96 105.746Z" fill="#E2E8F0"/>
<path d="M18.663 23.1225C18.607 23.1232 18.5528 23.1033 18.5105 23.0666L12.9864 18.32C12.9438 18.2756 12.92 18.2164 12.92 18.1549C12.92 18.0933 12.9438 18.0342 12.9864 17.9897C13.0059 17.9657 13.0302 17.9459 13.0576 17.9315C13.0851 17.9172 13.1152 17.9086 13.1461 17.9062C13.177 17.9038 13.208 17.9077 13.2373 17.9177C13.2667 17.9277 13.2937 17.9436 13.3167 17.9643L18.8408 22.7109C18.8649 22.7305 18.8847 22.7547 18.899 22.7822C18.9134 22.8096 18.922 22.8397 18.9244 22.8706C18.9267 22.9015 18.9228 22.9326 18.9128 22.9619C18.9028 22.9912 18.887 23.0182 18.8663 23.0412C18.8422 23.0711 18.8108 23.0942 18.7752 23.1085C18.7397 23.1227 18.701 23.1276 18.663 23.1225Z" fill="#E2E8F0"/>
<path d="M115.923 82.0081C115.88 82.0083 115.838 81.9978 115.801 81.9776C115.772 81.9621 115.746 81.941 115.725 81.9154C115.704 81.8898 115.688 81.8603 115.679 81.8286C115.669 81.7969 115.666 81.7637 115.67 81.7308C115.673 81.6979 115.683 81.666 115.699 81.6371L121.234 71.5238C121.26 71.4744 121.303 71.4354 121.355 71.4132C121.406 71.3911 121.464 71.3871 121.518 71.4019C121.573 71.4147 121.621 71.446 121.656 71.4904C121.69 71.5348 121.708 71.5897 121.706 71.6458V80.6105C121.706 80.6779 121.679 80.7425 121.632 80.7902C121.584 80.8378 121.519 80.8646 121.452 80.8646C121.385 80.8646 121.32 80.8378 121.272 80.7902C121.225 80.7425 121.198 80.6779 121.198 80.6105V72.6368L116.116 81.881C116.096 81.9159 116.068 81.9457 116.035 81.9678C116.001 81.9898 115.963 82.0037 115.923 82.0081Z" fill="white"/>
</svg>
