<svg width="26" height="14" viewBox="0 0 26 14" fill="none" xmlns="http://www.w3.org/2000/svg">
<path d="M14.279 2.41144C16.8697 -0.108674 21.0211 -0.0513697 23.5412 2.53929C26.0494 5.11769 26.0878 9.19986 23.485 11.7318C20.8943 14.2519 16.7429 14.1946 14.2228 11.6039C13.853 11.2238 13.5423 10.7953 13.2875 10.3502C12.791 10.7993 12.0242 10.7779 11.5536 10.2941L10.3334 9.03975L9.07896 10.26C8.58409 10.7414 7.79277 10.7305 7.31138 10.2356L6.09114 8.9812L5.19514 9.85279C4.50236 10.5267 3.39442 10.5114 2.72051 9.81863L0.977309 8.02663C0.30339 7.33384 0.318686 6.22591 1.01147 5.55199L2.56808 4.03778C3.09084 3.52926 3.79426 3.24919 4.52352 3.25927L13.3414 3.38101C13.4184 3.38207 13.5043 3.34394 13.5647 3.26043C13.7689 2.97759 14.0014 2.68143 14.279 2.41144ZM21.9106 7.9621C22.4054 7.48073 22.4163 6.68931 21.935 6.19451C21.4536 5.69963 20.6623 5.68873 20.1674 6.1701C19.6726 6.65147 19.6616 7.44282 20.143 7.9377C20.6243 8.43251 21.4158 8.44347 21.9106 7.9621Z" fill="#ABB1BB"/>
</svg>
