<svg width="13" height="22" viewBox="0 0 15 24" fill="none" xmlns="http://www.w3.org/2000/svg">
<path d="M11.6394 0.333252C13.0891 0.333252 14.2644 1.50851 14.2644 2.95825V21.0416C14.2644 22.4913 13.0891 23.6666 11.6394 23.6666H2.8894C1.43966 23.6666 0.264404 22.4913 0.264404 21.0416V2.95825C0.264404 1.50851 1.43966 0.333252 2.8894 0.333252H11.6394ZM8.72274 18.9999H5.80607C5.32284 18.9999 4.93107 19.3917 4.93107 19.8749C4.93107 20.3582 5.32284 20.7499 5.80607 20.7499H8.72274C9.20597 20.7499 9.59774 20.3582 9.59774 19.8749C9.59774 19.3917 9.20597 18.9999 8.72274 18.9999Z" fill="#ABB1BB"/>
</svg>