<svg width="19" height="18" viewBox="0 0 19 18" fill="none" xmlns="http://www.w3.org/2000/svg">
<path fill-rule="evenodd" clip-rule="evenodd" d="M8.15075 5.6595C8.48057 5.72169 8.78976 5.86485 9.05055 6.07611C9.31134 6.28738 9.51555 6.56013 9.64484 6.86986C9.77412 7.17958 9.82442 7.51658 9.79122 7.85056C9.75802 8.18454 9.64236 8.50504 9.45463 8.78325L14.6424 12.81C14.8113 12.7225 15.0049 12.6946 15.1917 12.731C15.3785 12.7673 15.5475 12.8657 15.6713 13.0102C15.7951 13.1548 15.8664 13.3369 15.8737 13.527C15.8809 13.7172 15.8237 13.9042 15.7112 14.0577C15.5988 14.2112 15.4378 14.3222 15.2543 14.3727C15.0709 14.4232 14.8757 14.4102 14.7006 14.3357C14.5254 14.2613 14.3806 14.1299 14.2896 13.9628C14.1985 13.7957 14.1667 13.6027 14.1991 13.4152L8.92288 9.3195C8.67442 9.48976 8.39111 9.60246 8.09358 9.64937C7.79606 9.69629 7.49182 9.67624 7.20302 9.59069C6.91423 9.50514 6.64815 9.35625 6.42418 9.15485C6.20021 8.95346 6.02399 8.70464 5.90835 8.42652C5.79272 8.1484 5.74058 7.84799 5.75574 7.54717C5.7709 7.24635 5.85297 6.9527 5.99598 6.68762C6.13899 6.42253 6.33934 6.19269 6.58242 6.01483C6.8255 5.83697 7.1052 5.71558 7.40113 5.6595L7.40038 2.25H8.15038V5.6595H8.15075ZM8.45038 7.65C8.45038 7.73864 8.43292 7.82642 8.399 7.90831C8.36508 7.99021 8.31536 8.06462 8.25268 8.1273C8.19 8.18998 8.11559 8.2397 8.03369 8.27362C7.9518 8.30754 7.86402 8.325 7.77538 8.325C7.68674 8.325 7.59896 8.30754 7.51707 8.27362C7.43517 8.2397 7.36076 8.18998 7.29808 8.1273C7.2354 8.06462 7.18568 7.99021 7.15176 7.90831C7.11784 7.82642 7.10038 7.73864 7.10038 7.65C7.10038 7.47098 7.1715 7.29929 7.29808 7.1727C7.42467 7.04612 7.59636 6.975 7.77538 6.975C7.9544 6.975 8.12609 7.04612 8.25268 7.1727C8.37926 7.29929 8.45038 7.47098 8.45038 7.65Z" fill="#7BBCB0"/>
<path d="M10.4844 7.64404C10.4845 7.12533 10.3352 6.61755 10.0544 6.18143C9.77354 5.74532 9.37304 5.39931 8.90076 5.18479V2.28979C10.5091 2.43117 11.3446 2.93779 12.0928 3.63117C12.1303 3.66642 12.1678 3.70054 12.2038 3.73354V3.73392C12.5225 4.02642 12.776 4.25929 12.9069 4.60804L14.4946 8.83504C14.5372 8.9485 14.5516 9.07058 14.5366 9.19082C14.5217 9.31106 14.4778 9.42589 14.4088 9.52546C14.3397 9.62504 14.2476 9.70639 14.1402 9.76254C14.0328 9.8187 13.9134 9.848 13.7923 9.84792H13.1806V10.725L10.34 8.51892C10.4362 8.2374 10.4851 7.94191 10.4848 7.64442L10.4844 7.64404Z" fill="#7BBCB0"/>
<path d="M6.651 5.19221V2.34033C3.27975 2.84771 2.37488 5.36283 2.37488 6.74058C2.37488 8.90321 3.756 10.5806 4.40363 11.253V15.75H10.8206V13.308H12.4305C12.5438 13.308 12.6518 13.2825 12.7478 13.2375L8.77838 10.155C8.12232 10.4257 7.38604 10.4272 6.72886 10.1592C6.07168 9.89121 5.54645 9.37523 5.26682 8.72291C4.98719 8.07059 4.97565 7.3344 5.2347 6.67364C5.49374 6.01287 6.00254 5.48068 6.651 5.19221Z" fill="#7BBCB0"/>
</svg>
