<svg width="15" height="14" viewBox="0 0 15 14" fill="none" xmlns="http://www.w3.org/2000/svg">
<path d="M3.38066 2.75737C3.93782 2.20022 4.59926 1.75826 5.32721 1.45673C6.05517 1.1552 6.83539 1 7.62333 1C8.41126 1 9.19148 1.1552 9.91944 1.45673C10.6474 1.75826 11.3088 2.20021 11.866 2.75737C12.4231 3.31452 12.8651 3.97596 13.1666 4.70392C13.4682 5.43188 13.6234 6.2121 13.6234 7.00004C13.6234 7.78797 13.4682 8.56819 13.1666 9.29615C12.8651 10.0241 12.4231 10.6855 11.866 11.2427C10.7408 12.3679 9.21464 13.0001 7.62333 13.0001C6.03202 13.0001 4.50589 12.3679 3.38066 11.2427C2.25544 10.1175 1.62329 8.59135 1.62329 7.00004C1.62329 5.40873 2.25544 3.8826 3.38066 2.75737V2.75737Z" stroke="#7BBCB0" stroke-width="1.8" stroke-linecap="round"/>
<path d="M3.62335 3L11.6234 11" stroke="#7BBCB0" stroke-width="1.8" stroke-linecap="round"/>
</svg>
