<svg width="19" height="18" viewBox="0 0 19 18" fill="none" xmlns="http://www.w3.org/2000/svg">
<path d="M16.7348 7.24219H12.2348C12.1575 7.24219 12.0942 7.30547 12.0942 7.38281V8.22656C12.0942 8.30391 12.1575 8.36719 12.2348 8.36719H16.7348C16.8122 8.36719 16.8755 8.30391 16.8755 8.22656V7.38281C16.8755 7.30547 16.8122 7.24219 16.7348 7.24219ZM14.3794 9.63281H12.2348C12.1575 9.63281 12.0942 9.69609 12.0942 9.77344V10.6172C12.0942 10.6945 12.1575 10.7578 12.2348 10.7578H14.3794C14.4567 10.7578 14.52 10.6945 14.52 10.6172V9.77344C14.52 9.69609 14.4567 9.63281 14.3794 9.63281ZM8.51355 5.66895H7.75242C7.64343 5.66895 7.55554 5.75684 7.55554 5.86582V10.2252C7.55554 10.2885 7.58542 10.3465 7.6364 10.3834L10.2538 12.2924C10.3417 12.3557 10.4647 12.3381 10.528 12.2502L10.9798 11.6332V11.6314C11.043 11.5436 11.0237 11.4205 10.9358 11.3572L8.70867 9.74707V5.86582C8.71042 5.75684 8.62078 5.66895 8.51355 5.66895Z" fill="#7BBCB0"/>
<path d="M14.2705 11.8459H13.2545C13.156 11.8459 13.0629 11.8969 13.0101 11.9812C12.7869 12.3346 12.5267 12.6615 12.2279 12.9604C11.7129 13.4754 11.1135 13.8797 10.4472 14.1609C9.75642 14.4527 9.02341 14.6004 8.26755 14.6004C7.50994 14.6004 6.77693 14.4527 6.08787 14.1609C5.42165 13.8797 4.82224 13.4754 4.3072 12.9604C3.79216 12.4453 3.38787 11.8459 3.10662 11.1797C2.81482 10.4906 2.66716 9.75762 2.66716 9C2.66716 8.24238 2.81482 7.51113 3.10662 6.82031C3.38787 6.1541 3.79216 5.55469 4.3072 5.03965C4.82224 4.52461 5.42165 4.12031 6.08787 3.83906C6.77693 3.54726 7.51169 3.39961 8.26755 3.39961C9.02517 3.39961 9.75818 3.54726 10.4472 3.83906C11.1135 4.12031 11.7129 4.52461 12.2279 5.03965C12.5267 5.33848 12.7869 5.66543 13.0101 6.01875C13.0629 6.10312 13.156 6.1541 13.2545 6.1541H14.2705C14.3918 6.1541 14.4691 6.02754 14.4146 5.92031C13.2685 3.64043 10.9447 2.15859 8.35017 2.12871C4.55154 2.08125 1.39626 5.19082 1.38923 8.98594C1.3822 12.7881 4.46365 15.873 8.2658 15.873C10.8937 15.873 13.2562 14.3859 14.4146 12.0797C14.4691 11.9725 14.39 11.8459 14.2705 11.8459Z" fill="#7BBCB0"/>
</svg>
