<svg width="15" height="14" viewBox="0 0 15 14" fill="none" xmlns="http://www.w3.org/2000/svg">
<path d="M3.31237 4.2052e-08C3.14941 3.36417e-05 2.99089 0.0531449 2.8608 0.151298C2.73072 0.249451 2.63613 0.387304 2.59137 0.544L0.733374 7.044C0.701471 7.15569 0.695944 7.27326 0.71723 7.38744C0.738516 7.50163 0.786033 7.60931 0.856035 7.702C0.926037 7.79469 1.01661 7.86985 1.12062 7.92157C1.22462 7.97328 1.33922 8.00013 1.45537 8H2.98337L1.63837 13.379C1.61159 13.4863 1.62114 13.5995 1.66553 13.7008C1.70992 13.8021 1.78665 13.8858 1.8837 13.9388C1.98075 13.9919 2.09266 14.0112 2.20189 13.9939C2.31112 13.9766 2.41152 13.9235 2.48737 13.843L4.91537 11.273C4.6355 10.4514 4.55403 9.57528 4.67763 8.71619C4.80123 7.8571 5.1264 7.03946 5.62654 6.33011C6.12668 5.62077 6.7876 5.03986 7.55526 4.63488C8.32292 4.22989 9.17553 4.01234 10.0434 4H7.84537L8.96537 1.012C9.00767 0.898543 9.02187 0.77653 9.00676 0.656391C8.99165 0.536252 8.94767 0.421558 8.87859 0.322112C8.80951 0.222666 8.71738 0.141424 8.61007 0.0853307C8.50276 0.0292371 8.38346 -4.0502e-05 8.26237 4.2052e-08H3.31337H3.31237ZM10.1234 14C10.7143 14 11.2995 13.8836 11.8454 13.6575C12.3914 13.4313 12.8875 13.0998 13.3054 12.682C13.7232 12.2641 14.0547 11.768 14.2808 11.2221C14.507 10.6761 14.6234 10.0909 14.6234 9.5C14.6234 8.90905 14.507 8.32389 14.2808 7.77792C14.0547 7.23196 13.7232 6.73588 13.3054 6.31802C12.8875 5.90016 12.3914 5.56869 11.8454 5.34254C11.2995 5.1164 10.7143 5 10.1234 5C8.9299 5 7.78531 5.47411 6.94139 6.31802C6.09748 7.16193 5.62337 8.30653 5.62337 9.5C5.62337 10.6935 6.09748 11.8381 6.94139 12.682C7.78531 13.5259 8.9299 14 10.1234 14ZM12.4774 8.354L9.47737 11.354C9.38361 11.4477 9.25646 11.5004 9.12387 11.5004C8.99129 11.5004 8.86414 11.4477 8.77037 11.354L7.77037 10.354C7.72389 10.3076 7.687 10.2525 7.66181 10.1918C7.63663 10.1311 7.62364 10.0661 7.6236 10.0004C7.6235 9.86767 7.67612 9.74039 7.76987 9.6465C7.86363 9.55261 7.99084 9.49981 8.12352 9.49972C8.2562 9.49963 8.38349 9.55225 8.47737 9.646L9.12337 10.293L11.7694 7.646C11.8633 7.55211 11.9906 7.49937 12.1234 7.49937C12.2561 7.49937 12.3835 7.55211 12.4774 7.646C12.5713 7.73989 12.624 7.86722 12.624 8C12.624 8.13278 12.5713 8.26011 12.4774 8.354Z" fill="#7BBCB0"/>
</svg>
