<svg width="19" height="18" viewBox="0 0 19 18" fill="none" xmlns="http://www.w3.org/2000/svg">
<path d="M13.5609 3.9375H15.8109V6.1875H13.5609V3.9375Z" fill="#7BBCB0"/>
<path d="M13.5609 7.3125H15.8109V9.5625H13.5609V7.3125Z" fill="#7BBCB0"/>
<path d="M10.1859 3.9375H12.4359V6.1875H10.1859V3.9375Z" fill="#7BBCB0"/>
<path d="M10.1859 7.3125H12.4359V9.5625H10.1859V7.3125Z" fill="#7BBCB0"/>
<path d="M8.7796 14.625C9.24559 14.625 9.62335 14.2472 9.62335 13.7812C9.62335 13.3153 9.24559 12.9375 8.7796 12.9375C8.31361 12.9375 7.93585 13.3153 7.93585 13.7812C7.93585 14.2472 8.31361 14.625 8.7796 14.625Z" fill="#7BBCB0"/>
<path d="M12.4359 16.875H5.12335C4.82507 16.8747 4.5391 16.7561 4.32819 16.5452C4.11727 16.3343 3.99865 16.0483 3.99835 15.75V2.25C3.99865 1.95172 4.11727 1.66575 4.32819 1.45483C4.5391 1.24392 4.82507 1.1253 5.12335 1.125H12.4359V2.25H5.12335V15.75H12.4359V11.25H13.5609V15.75C13.5606 16.0483 13.4419 16.3343 13.231 16.5452C13.0201 16.7561 12.7341 16.8747 12.4359 16.875Z" fill="#7BBCB0"/>
</svg>
