<svg width="19" height="18" viewBox="0 0 19 18" fill="none" xmlns="http://www.w3.org/2000/svg">
<path d="M8.37485 1.5H5.37485C5.17594 1.5 4.98517 1.57902 4.84452 1.71967C4.70387 1.86032 4.62485 2.05109 4.62485 2.25V5.109C3.94156 5.50332 3.37398 6.0704 2.97906 6.75335C2.58415 7.4363 2.37577 8.21109 2.37485 9V9.741L2.37335 9.75L2.37485 9.804V15.75C2.37485 15.9489 2.45387 16.1397 2.59452 16.2803C2.73517 16.421 2.92594 16.5 3.12485 16.5H10.6249C10.8238 16.5 11.0145 16.421 11.1552 16.2803C11.2958 16.1397 11.3749 15.9489 11.3749 15.75V9C11.3739 8.21111 11.1655 7.43634 10.7705 6.75341C10.3756 6.07048 9.80809 5.50338 9.12485 5.109V2.25C9.12485 2.05109 9.04583 1.86032 8.90518 1.71967C8.76453 1.57902 8.57376 1.5 8.37485 1.5ZM6.12485 4.5V3H7.62485V4.5H6.12485ZM9.8756 15H3.8756V10.5H9.8756V15ZM3.87485 9C3.87485 7.3455 5.22035 6 6.87485 6C8.52935 6 9.87485 7.3455 9.87485 9H3.87485ZM9.8756 2.25H11.3756V3.75H9.8756V2.25ZM12.1234 2.25H13.6234V3.75H12.1234V2.25ZM12.1234 4.5H13.6234V6H12.1234V4.5ZM14.3734 2.25H15.8734V3.75H14.3734V2.25ZM14.3734 4.5H15.8734V6H14.3734V4.5ZM14.3734 6.75H15.8734V8.25H14.3734V6.75Z" fill="#7BBCB0"/>
</svg>
