<svg width="21" height="19" viewBox="0 0 21 19" fill="none" xmlns="http://www.w3.org/2000/svg">
<path fill-rule="evenodd" clip-rule="evenodd" d="M10.2459 0.0697021C4.74905 0.0697021 0.292725 4.18975 0.292725 9.27185C0.292725 14.3539 4.74905 18.474 10.2459 18.474C15.7428 18.474 20.1992 14.3539 20.1992 9.27185C20.1992 4.18975 15.7428 0.0697021 10.2459 0.0697021ZM2.1024 9.27185C2.1024 8.28312 2.31304 7.30408 2.72229 6.39061C3.13154 5.47715 3.73139 4.64716 4.48759 3.94802C5.24379 3.24889 6.14153 2.6943 7.12955 2.31593C8.11757 1.93756 9.17652 1.74282 10.2459 1.74282C11.3154 1.74282 12.3743 1.93756 13.3624 2.31593C14.3504 2.6943 15.2481 3.24889 16.0043 3.94802C16.7605 4.64716 17.3604 5.47715 17.7696 6.39061C18.1789 7.30408 18.3895 8.28312 18.3895 9.27185C18.3895 11.2687 17.5315 13.1837 16.0043 14.5957C14.4771 16.0076 12.4058 16.8009 10.2459 16.8009C8.08615 16.8009 6.0148 16.0076 4.48759 14.5957C2.96038 13.1837 2.1024 11.2687 2.1024 9.27185ZM11.1508 5.08905C11.1508 4.86719 11.0555 4.6544 10.8858 4.49752C10.7161 4.34063 10.4859 4.2525 10.2459 4.2525C10.006 4.2525 9.77582 4.34063 9.60613 4.49752C9.43644 4.6544 9.34111 4.86719 9.34111 5.08905V9.27185C9.34111 9.40172 9.37382 9.52981 9.43664 9.64597C9.49946 9.76213 9.59067 9.86317 9.70305 9.9411L13.3224 12.4508C13.5144 12.5839 13.7557 12.6411 13.9933 12.6097C14.2308 12.5783 14.4452 12.461 14.5892 12.2835C14.7332 12.106 14.795 11.8829 14.761 11.6632C14.7271 11.4436 14.6002 11.2454 14.4082 11.1123L11.1508 8.85357V5.08905Z" fill="#495560"/>
</svg>
