<svg width="24" height="17" viewBox="0 0 24 17" fill="none" xmlns="http://www.w3.org/2000/svg">
<path d="M16.9665 9.82422C18.4456 10.7602 19.4821 12.0284 19.4821 13.7193V16.7388H23.8006V13.7193C23.8006 11.5252 19.9463 10.2268 16.9665 9.82422ZM15.1635 8.68689C17.5495 8.68689 19.4821 6.88528 19.4821 4.66095C19.4821 2.43662 17.5495 0.63501 15.1635 0.63501C14.6561 0.63501 14.181 0.735658 13.7276 0.876566C14.6566 1.94768 15.1635 3.28348 15.1635 4.66095C15.1635 6.03842 14.6566 7.37421 13.7276 8.44533C14.181 8.58624 14.6561 8.68689 15.1635 8.68689ZM8.68568 8.68689C11.0717 8.68689 13.0042 6.88528 13.0042 4.66095C13.0042 2.43662 11.0717 0.63501 8.68568 0.63501C6.29968 0.63501 4.36713 2.43662 4.36713 4.66095C4.36713 6.88528 6.29968 8.68689 8.68568 8.68689ZM8.68568 2.64798C9.87328 2.64798 10.845 3.55382 10.845 4.66095C10.845 5.76808 9.87328 6.67392 8.68568 6.67392C7.49808 6.67392 6.52641 5.76808 6.52641 4.66095C6.52641 3.55382 7.49808 2.64798 8.68568 2.64798ZM8.68568 9.69337C5.80305 9.69337 0.048584 11.0421 0.048584 13.7193V16.7388H17.3228V13.7193C17.3228 11.0421 11.5683 9.69337 8.68568 9.69337ZM15.1635 14.7258H2.20786V13.7294C2.42379 13.0047 5.77066 11.7063 8.68568 11.7063C11.6007 11.7063 14.9476 13.0047 15.1635 13.7193V14.7258Z" fill="#495560"/>
</svg>
