<svg width="26" height="17" viewBox="0 0 26 17" fill="none" xmlns="http://www.w3.org/2000/svg">
<path d="M19.5704 6.06317L19.337 5.98588L17.3603 2.55939C16.989 1.91546 16.4354 1.37694 15.7587 1.00143C15.0819 0.625913 14.3075 0.427529 13.5183 0.42749H8.54071C7.62666 0.427456 6.73578 0.693376 5.99432 1.18757C5.25286 1.68176 4.69843 2.37915 4.40959 3.18092L3.46738 5.79427C2.678 6.10188 2.0043 6.61793 1.53062 7.27783C1.05695 7.93774 0.80435 8.71216 0.804443 9.50415V11.2963C0.804443 12.4395 1.54115 13.4218 2.59831 13.8646C2.73521 14.5898 3.13672 15.2497 3.73595 15.7345C4.33519 16.2192 5.09598 16.4995 5.89159 16.5287C6.68721 16.5579 7.46963 16.3342 8.10852 15.8948C8.74741 15.4555 9.2042 14.827 9.40281 14.1141H16.5887C16.7873 14.827 17.2441 15.4555 17.883 15.8948C18.5219 16.3342 19.3043 16.5579 20.0999 16.5287C20.8956 16.4995 21.6563 16.2192 22.2556 15.7345C22.8548 15.2497 23.2563 14.5898 23.3932 13.8646C23.9278 13.6414 24.3814 13.2805 24.6996 12.8249C25.0178 12.3693 25.1871 11.8386 25.1871 11.2963V10.7504C25.187 9.91945 24.9087 9.10887 24.3904 8.42993C23.8722 7.751 23.1393 7.23698 22.2925 6.95844L19.6627 6.09376V6.06317H19.5704ZM8.54071 2.03768H10.3833V6.06317H5.20551L6.06065 3.68974C6.23402 3.20847 6.5669 2.78989 7.01205 2.49335C7.4572 2.19682 7.99204 2.03739 8.54071 2.03768ZM12.125 2.03768H13.5183C13.9919 2.03753 14.4566 2.15641 14.8628 2.3816C15.2689 2.6068 15.6012 2.92984 15.8242 3.31618L17.409 6.06317H12.125V2.03768ZM19.2708 7.67336L21.7091 8.47524C22.2171 8.64242 22.6567 8.95085 22.9676 9.35821C23.2785 9.76556 23.4454 10.2519 23.4455 10.7504V11.2963C23.4455 11.5781 23.341 11.8373 23.1668 12.0434C22.8815 11.4244 22.3937 10.9035 21.7717 10.5539C21.1498 10.2043 20.4251 10.0437 19.6993 10.0945C18.9735 10.1453 18.2832 10.405 17.7253 10.8372C17.1674 11.2693 16.7699 11.8522 16.5887 12.5039H9.40281C9.22161 11.8522 8.82414 11.2693 8.26623 10.8372C7.70833 10.405 7.01801 10.1453 6.29224 10.0945C5.56648 10.0437 4.84173 10.2043 4.2198 10.5539C3.59787 10.9035 3.11 11.4244 2.82472 12.0434C2.64346 11.8305 2.54528 11.5672 2.54606 11.2963V9.50415C2.54606 8.77956 2.89438 8.11938 3.4517 7.67336H19.2708ZM4.28768 13.309C4.28768 12.882 4.47117 12.4724 4.79779 12.1705C5.1244 11.8685 5.56739 11.6988 6.0293 11.6988C6.4912 11.6988 6.93419 11.8685 7.2608 12.1705C7.58742 12.4724 7.77091 12.882 7.77091 13.309C7.77091 13.7361 7.58742 14.1456 7.2608 14.4476C6.93419 14.7496 6.4912 14.9192 6.0293 14.9192C5.56739 14.9192 5.1244 14.7496 4.79779 14.4476C4.47117 14.1456 4.28768 13.7361 4.28768 13.309ZM19.9622 11.6988C20.4241 11.6988 20.8671 11.8685 21.1937 12.1705C21.5204 12.4724 21.7039 12.882 21.7039 13.309C21.7039 13.7361 21.5204 14.1456 21.1937 14.4476C20.8671 14.7496 20.4241 14.9192 19.9622 14.9192C19.5003 14.9192 19.0573 14.7496 18.7307 14.4476C18.4041 14.1456 18.2206 13.7361 18.2206 13.309C18.2206 12.882 18.4041 12.4724 18.7307 12.1705C19.0573 11.8685 19.5003 11.6988 19.9622 11.6988Z" fill="#495560"/>
</svg>
