<svg width="88" height="17" viewBox="0 0 88 17" fill="none" xmlns="http://www.w3.org/2000/svg">
<path d="M9.59213 0.697632L11.8957 5.81816L17.875 6.26134L13.3194 9.86918L14.7112 15.2636L9.59213 12.3729L4.47306 15.2636L5.86486 9.86918L1.30931 6.26134L7.28855 5.81816L9.59213 0.697632Z" fill="#FFA432"/>
<path d="M27.0103 0.697632L29.3139 5.81816L35.2932 6.26134L30.7376 9.86918L32.1294 15.2636L27.0103 12.3729L21.8913 15.2636L23.2831 9.86918L18.7275 6.26134L24.7068 5.81816L27.0103 0.697632Z" fill="#FFA432"/>
<path d="M44.4283 0.697632L46.7319 5.81816L52.7111 6.26134L48.1556 9.86918L49.5474 15.2636L44.4283 12.3729L39.3092 15.2636L40.701 9.86918L36.1455 6.26134L42.1247 5.81816L44.4283 0.697632Z" fill="#FFA432"/>
<path d="M61.8465 0.697632L64.1501 5.81816L70.1293 6.26134L65.5738 9.86918L66.9656 15.2636L61.8465 12.3729L56.7275 15.2636L58.1193 9.86918L53.5637 6.26134L59.5429 5.81816L61.8465 0.697632Z" fill="#FFA432"/>
<path d="M79.2647 0.697632L81.5683 5.81816L87.5476 6.26134L82.992 9.86918L84.3838 15.2636L79.2647 12.3729L74.1457 15.2636L75.5375 9.86918L70.9819 6.26134L76.9612 5.81816L79.2647 0.697632Z" fill="#CFD9DE"/>
</svg>
