<svg width="80" height="16" viewBox="0 0 80 16" fill="none" xmlns="http://www.w3.org/2000/svg">
<path d="M8 0L10.116 5.08754L15.6085 5.52786L11.4238 9.11246L12.7023 14.4721L8 11.6L3.29772 14.4721L4.5762 9.11246L0.391548 5.52786L5.88397 5.08754L8 0Z" fill="#FFA432"/>
<path d="M24 0L26.116 5.08754L31.6085 5.52786L27.4238 9.11246L28.7023 14.4721L24 11.6L19.2977 14.4721L20.5762 9.11246L16.3915 5.52786L21.884 5.08754L24 0Z" fill="#FFA432"/>
<path d="M40 0L42.116 5.08754L47.6085 5.52786L43.4238 9.11246L44.7023 14.4721L40 11.6L35.2977 14.4721L36.5762 9.11246L32.3915 5.52786L37.884 5.08754L40 0Z" fill="#FFA432"/>
<path d="M56 0L58.116 5.08754L63.6085 5.52786L59.4238 9.11246L60.7023 14.4721L56 11.6L51.2977 14.4721L52.5762 9.11246L48.3915 5.52786L53.884 5.08754L56 0Z" fill="#FFA432"/>
<path d="M72 0L74.116 5.08754L79.6085 5.52786L75.4238 9.11246L76.7023 14.4721L72 11.6L67.2977 14.4721L68.5762 9.11246L64.3915 5.52786L69.884 5.08754L72 0Z" fill="#FFA432"/>
</svg>
