<svg width="88" height="17" viewBox="0 0 88 17" fill="none" xmlns="http://www.w3.org/2000/svg">
<path d="M9.59213 0.697632L11.8957 5.81816L17.875 6.26134L13.3194 9.86918L14.7112 15.2636L9.59213 12.3729L4.47306 15.2636L5.86486 9.86918L1.30931 6.26134L7.28855 5.81816L9.59213 0.697632Z" fill="#FFA432"/>
<path d="M79.2647 0.697632L81.5683 5.81816L87.5476 6.26134L82.992 9.86918L84.3838 15.2636L79.2647 12.3729L74.1457 15.2636L75.5375 9.86918L70.9819 6.26134L76.9612 5.81816L79.2647 0.697632Z" fill="#CFD9DE"/>
<path d="M79.2647 0.697632L81.5683 5.81816L87.5476 6.26134L82.992 9.86918L84.3838 15.2636L79.2647 12.3729L74.1457 15.2636L75.5375 9.86918L70.9819 6.26134L76.9612 5.81816L79.2647 0.697632Z" fill="#CFD9DE"/>
<path d="M79.2647 0.697632L81.5683 5.81816L87.5476 6.26134L82.992 9.86918L84.3838 15.2636L79.2647 12.3729L74.1457 15.2636L75.5375 9.86918L70.9819 6.26134L76.9612 5.81816L79.2647 0.697632Z" fill="#CFD9DE"/>
<path d="M79.2647 0.697632L81.5683 5.81816L87.5476 6.26134L82.992 9.86918L84.3838 15.2636L79.2647 12.3729L74.1457 15.2636L75.5375 9.86918L70.9819 6.26134L76.9612 5.81816L79.2647 0.697632Z" fill="#CFD9DE"/>
</svg>
